HIERARCHY
ROOT Hips
{
	OFFSET 0.00000 0.00000 0.00000
	CHANNELS 6 Xposition Yposition Zposition Zrotation Yrotation Xrotation 
	JOINT LHipJoint
	{
		OFFSET 0 0 0
		CHANNELS 3 Zrotation Yrotation Xrotation
		JOINT LeftUpLeg
		{
			OFFSET 1.29432 -1.88279 0.59910
			CHANNELS 3 Zrotation Yrotation Xrotation
			JOINT LeftLeg
			{
				OFFSET 2.63039 -7.22694 0.00000
				CHANNELS 3 Zrotation Yrotation Xrotation
				JOINT LeftFoot
				{
					OFFSET 2.70674 -7.43672 0.00000
					CHANNELS 3 Zrotation Yrotation Xrotation
					JOINT LeftToeBase
					{
						OFFSET 0.15066 -0.41394 2.09027
						CHANNELS 3 Zrotation Yrotation Xrotation
						End Site
						{
							OFFSET 0.00000 -0.00000 1.07518
						}
					}
				}
			}
		}
	}
	JOINT RHipJoint
	{
		OFFSET 0 0 0
		CHANNELS 3 Zrotation Yrotation Xrotation
		JOINT RightUpLeg
		{
			OFFSET -1.37068 -1.88279 0.59910
			CHANNELS 3 Zrotation Yrotation Xrotation
			JOINT RightLeg
			{
				OFFSET -2.57023 -7.06166 0.00000
				CHANNELS 3 Zrotation Yrotation Xrotation
				JOINT RightFoot
				{
					OFFSET -2.76461 -7.59570 0.00000
					CHANNELS 3 Zrotation Yrotation Xrotation
					JOINT RightToeBase
					{
						OFFSET -0.24175 -0.64785 2.19719
						CHANNELS 3 Zrotation Yrotation Xrotation
						End Site
						{
							OFFSET -0.00000 -0.00000 1.14803
						}
					}
				}
			}
		}
	}
	JOINT LowerBack
	{
		OFFSET 0 0 0
		CHANNELS 3 Zrotation Yrotation Xrotation
		JOINT Spine
		{
			OFFSET -0.03138 2.03983 -0.23106
			CHANNELS 3 Zrotation Yrotation Xrotation
			JOINT Spine1
			{
				OFFSET -0.00325 2.06238 -0.06878
				CHANNELS 3 Zrotation Yrotation Xrotation
				JOINT Neck
				{
					OFFSET 0 0 0
					CHANNELS 3 Zrotation Yrotation Xrotation
					JOINT Neck1
					{
						OFFSET -0.00002 1.75318 0.18090
						CHANNELS 3 Zrotation Yrotation Xrotation
						JOINT Head
						{
							OFFSET 0.08806 1.75856 -0.25387
							CHANNELS 3 Zrotation Yrotation Xrotation
							End Site
							{
								OFFSET 0.02554 1.78597 -0.10684
							}
						}
					}
				}
				JOINT LeftShoulder
				{
					OFFSET 0 0 0
					CHANNELS 3 Zrotation Yrotation Xrotation
					JOINT LeftArm
					{
						OFFSET 3.09657 1.33597 -0.04414
						CHANNELS 3 Zrotation Yrotation Xrotation
						JOINT LeftForeArm
						{
							OFFSET 5.34298 -0.00000 -0.00000
							CHANNELS 3 Zrotation Yrotation Xrotation
							JOINT LeftHand
							{
								OFFSET 3.67262 -0.00000 -0.00000
								CHANNELS 3 Zrotation Yrotation Xrotation
								JOINT LeftFingerBase
								{
									OFFSET 0 0 0
									CHANNELS 3 Zrotation Yrotation Xrotation
									JOINT LeftHandIndex1
									{
										OFFSET 0.59930 -0.00000 -0.00000
										CHANNELS 3 Zrotation Yrotation Xrotation
										End Site
										{
											OFFSET 0.48317 -0.00000 -0.00000
										}
									}
								}
								JOINT LThumb
								{
									OFFSET 0 0 0
									CHANNELS 3 Zrotation Yrotation Xrotation
									End Site
									{
										OFFSET 0.49055 -0.00000 0.49055
									}
								}
							}
						}
					}
				}
				JOINT RightShoulder
				{
					OFFSET 0 0 0
					CHANNELS 3 Zrotation Yrotation Xrotation
					JOINT RightArm
					{
						OFFSET -3.16460 1.32273 -0.23382
						CHANNELS 3 Zrotation Yrotation Xrotation
						JOINT RightForeArm
						{
							OFFSET -5.54967 -0.01834 0.03348
							CHANNELS 3 Zrotation Yrotation Xrotation
							JOINT RightHand
							{
								OFFSET -3.69401 -0.00000 0.00000
								CHANNELS 3 Zrotation Yrotation Xrotation
								JOINT RightFingerBase
								{
									OFFSET 0 0 0
									CHANNELS 3 Zrotation Yrotation Xrotation
									JOINT RightHandIndex1
									{
										OFFSET -0.63811 -0.00000 0.00000
										CHANNELS 3 Zrotation Yrotation Xrotation
										End Site
										{
											OFFSET -0.51446 -0.00000 0.00000
										}
									}
								}
								JOINT RThumb
								{
									OFFSET 0 0 0
									CHANNELS 3 Zrotation Yrotation Xrotation
									End Site
									{
										OFFSET -0.52232 -0.00000 0.52232
									}
								}
							}
						}
					}
				}
			}
		}
	}
}
MOTION
Frames: 6
Frame Time: .0083333
12.7603 17.8106 -13.1117 4.8533 -18.5667 2.6761 0.0000 0.0000 0.0000 -20.8238 -1.2682 -12.5837 0.9140 6.0916 17.0505 0.1412 6.9051 -12.6798 0.8319 5.8186 16.2590 0.0000 0.0000 0.0000 16.3849 8.2831 -6.4999 -1.8216 -8.4842 24.1947 -1.0425 -7.9785 -23.7332 -0.0019 0.2833 -0.7784 -3.0071 1.3416 0.3853 -1.5847 1.8689 3.4461 0.0984 0.8661 3.2857 1.4489 -0.5172 -5.1436 8.0519 -4.7974 41.4421 2.5317 -0.9472 15.7984 0.0000 -0.0000 0.0000 -89.2810 1.6941 12.9489 15.4452 -24.7627 -3.4102 -0.0000 -0.0000 23.2098 13.3028 29.9535 6.7328 -7.1250 0.0000 -0.0000 -20.4286 59.4314 -7.3894 0.0000 -0.0000 0.0000 88.6330 -0.2467 21.4980 -20.1958 30.8775 -5.6315 0.0000 0.0000 16.1430 -24.1003 22.2514 -9.6141 7.1250 -0.0000 -0.0000 2.9916 -5.8653 2.6740
12.7371 17.8072 -13.1357 4.5051 -18.7472 2.7192 0.0000 0.0000 0.0000 -20.3104 -1.3460 -12.6545 0.9388 6.1716 17.2831 0.1624 6.9515 -13.0907 0.9248 6.1266 17.1521 0.0000 0.0000 0.0000 16.8738 8.4489 -6.4747 -1.8206 -8.4819 24.1877 -1.0071 -8.1254 -23.5487 -0.0142 0.7696 -2.1149 -2.6545 1.4008 0.5945 -1.5775 1.9385 3.6288 -0.0925 0.9087 3.3658 2.1833 -0.3876 -6.1449 8.0693 -4.7877 41.1474 2.3931 -0.8076 15.8771 -0.0000 -0.0000 0.0000 -88.9798 1.4937 12.8081 15.4054 -24.7079 -3.3936 -0.0000 -0.0000 23.6602 12.9815 30.2776 6.6298 -7.1250 0.0000 -0.0000 -21.0112 59.6590 -7.7269 -0.0000 -0.0000 0.0000 88.9318 0.2460 21.2292 -20.1437 30.8151 -5.6048 0.0000 0.0000 16.5399 -24.7299 23.0072 -10.2049 7.1250 -0.0000 -0.0000 2.6843 -4.9473 2.4455
12.7136 17.8078 -13.1609 4.2336 -18.9249 2.9051 0.0000 0.0000 0.0000 -19.8315 -1.6344 -12.9292 0.9747 6.2852 17.6142 0.1961 6.9716 -13.6555 1.0846 6.6190 18.5915 0.0000 0.0000 0.0000 17.2671 8.6958 -6.5725 -1.8120 -8.4631 24.1296 -0.9859 -8.2827 -23.4909 -0.0189 0.8865 -2.4366 -2.1083 1.8440 0.6167 -1.5768 2.5142 3.2889 -0.3904 1.2174 3.0137 2.5322 -0.6095 -4.9373 8.5060 -5.1637 40.2586 2.4276 -0.9078 15.1633 -0.0000 0.0000 0.0000 -88.6854 2.2643 13.8410 15.2843 -24.5407 -3.3431 -0.0000 -0.0000 23.8671 16.6691 28.9449 8.2455 -7.1250 0.0000 -0.0000 -16.1583 59.2440 -5.7151 -0.0000 0.0000 0.0000 89.2035 -0.6134 19.9193 -20.2997 31.0017 -5.6849 0.0000 0.0000 16.8146 -25.1494 23.5292 -10.6156 7.1250 -0.0000 -0.0000 2.4870 -4.3121 2.2952
12.6866 17.8078 -13.1786 4.0844 -19.1748 3.0521 0.0000 0.0000 0.0000 -19.5272 -1.7227 -13.2304 1.0128 6.4031 17.9587 0.2082 7.0924 -13.9723 1.0788 6.6020 18.5416 0.0000 0.0000 0.0000 17.5312 9.1082 -6.5861 -1.8080 -8.4542 24.1024 -0.9992 -8.3036 -23.6187 -0.0129 0.7335 -2.0157 -2.0123 1.8748 0.4443 -1.4630 2.5555 3.1989 -0.3220 1.2394 3.0161 2.5659 -0.4658 -4.4288 8.8649 -4.9632 39.5023 2.5653 -0.8093 14.6662 0.0000 0.0000 0.0000 -88.7860 2.4632 13.5187 15.0120 -24.1628 -3.2308 -0.0000 -0.0000 23.7687 25.6559 24.9179 11.4403 -7.1250 0.0000 -0.0000 -4.3437 57.1925 -1.2990 0.0000 0.0000 0.0000 89.1472 -0.6896 20.0104 -20.2723 30.9691 -5.6708 0.0000 0.0000 16.6968 -25.1962 23.1817 -10.4926 7.1250 -0.0000 -0.0000 2.4157 -4.6733 2.2129
12.6606 17.7963 -13.1883 3.9723 -19.4174 2.9973 0.0000 0.0000 0.0000 -19.2728 -1.7596 -13.2837 1.0535 6.5264 18.3196 0.2297 7.1416 -14.3479 1.1608 6.8399 19.2419 0.0000 0.0000 0.0000 17.7238 9.0592 -6.5827 -1.8103 -8.4592 24.1177 -0.9197 -8.3465 -22.9746 -0.0682 1.6852 -4.6365 -2.0583 1.6771 0.4105 -1.2857 2.2898 3.2324 -0.1182 1.1023 3.0626 2.4848 -0.1077 -4.3612 9.1015 -4.4433 38.9860 2.7192 -0.5888 14.3733 0.0000 0.0000 0.0000 -89.0189 2.4883 12.4736 14.6861 -23.7070 -3.0986 -0.0000 -0.0000 24.2655 16.9222 29.1297 8.4245 -7.1250 0.0000 -0.0000 -16.0114 59.4805 -5.7525 0.0000 0.0000 0.0000 88.9377 -0.3643 20.6322 -20.0241 30.6714 -5.5437 0.0000 0.0000 16.7468 -25.4995 22.5426 -10.3623 7.1250 -0.0000 -0.0000 2.1504 -5.2977 1.9441
12.6368 17.7778 -13.1937 3.7106 -19.7624 2.9749 0.0000 0.0000 0.0000 -18.8485 -1.4953 -13.4518 1.1056 6.6808 18.7732 0.2751 6.8264 -14.6944 1.3453 7.3433 20.7365 0.0000 0.0000 0.0000 18.0150 8.5765 -6.7431 -1.8095 -8.4574 24.1124 -0.8282 -8.1243 -21.9860 -0.2297 3.0850 -8.5156 -1.8275 1.6698 0.4005 -1.2146 2.2786 3.4006 -0.1710 1.0996 3.2480 2.9223 0.0888 -5.0607 9.0679 -4.2400 38.7027 2.6395 -0.4317 14.3799 -0.0000 -0.0000 0.0000 -88.9518 2.2632 11.6554 14.4413 -23.3621 -3.0009 -0.0000 -0.0000 25.3436 12.8384 30.3025 6.5597 -7.1250 0.0000 -0.0000 -21.1800 59.6490 -7.7873 -0.0000 -0.0000 0.0000 89.0490 0.1266 20.6201 -19.8495 30.4605 -5.4548 0.0000 0.0000 17.0632 -25.6119 22.4557 -10.3763 7.1250 -0.0000 -0.0000 2.0700 -5.3695 1.8684
